<svg width="26" height="24" viewBox="0 0 26 24" fill="none" xmlns="http://www.w3.org/2000/svg">
<path d="M12.1281 21.1674L12.126 21.1654C8.74911 18.0847 6.06675 15.6303 4.21108 13.3463C2.37217 11.0828 1.5 9.16868 1.5 7.19346C1.5 3.97368 3.9812 1.5 7.15 1.5C8.95516 1.5 10.7151 2.35326 11.8588 3.69395L13 5.03165L14.1412 3.69395C15.2849 2.35326 17.0448 1.5 18.85 1.5C22.0188 1.5 24.5 3.97368 24.5 7.19346C24.5 9.16868 23.6278 11.0828 21.7889 13.3463C19.9332 15.6303 17.2509 18.0847 13.874 21.1654L13.8719 21.1674L13 21.9659L12.1281 21.1674Z" stroke="#E7E7E7" stroke-width="3"/>
</svg>
